HIERARCHY
ROOT Pelvis
{
	OFFSET 0.000000 0.000000 0.000000
	CHANNELS 6 Xposition Yposition Zposition Zrotation Yrotation Xrotation 
	JOINT Left_hip
	{
		OFFSET 0.067986 -0.089946 -0.007639
		CHANNELS 3 Zrotation Yrotation Xrotation
		JOINT Left_knee
		{
			OFFSET 0.036308 -0.388288 -0.004016
			CHANNELS 3 Zrotation Yrotation Xrotation
			JOINT Left_ankle
			{
				OFFSET -0.012264 -0.413250 -0.042878
				CHANNELS 3 Zrotation Yrotation Xrotation
				JOINT Left_foot
				{
					OFFSET 0.024043 -0.058563 0.118570
					CHANNELS 3 Zrotation Yrotation Xrotation
					End Site
					{
						OFFSET 0.000000 0.000000 0.000000
					}
				}
			}
		}
	}
	JOINT Right_hip
	{
		OFFSET -0.065648 -0.089374 -0.003858
		CHANNELS 3 Zrotation Yrotation Xrotation
		JOINT Right_knee
		{
			OFFSET -0.042132 -0.395021 -0.006361
			CHANNELS 3 Zrotation Yrotation Xrotation
			JOINT Right_ankle
			{
				OFFSET 0.014805 -0.413264 -0.041054
				CHANNELS 3 Zrotation Yrotation Xrotation
				JOINT Right_foot
				{
					OFFSET -0.021758 -0.049013 0.121832
					CHANNELS 3 Zrotation Yrotation Xrotation
					End Site
					{
						OFFSET 0.000000 0.000000 0.000000
					}
				}
			}
		}
	}
	JOINT Spine1
	{
		OFFSET -0.002755 0.104406 -0.022277
		CHANNELS 3 Zrotation Yrotation Xrotation
		JOINT Spine2
		{
			OFFSET 0.004136 0.129393 -0.002186
			CHANNELS 3 Zrotation Yrotation Xrotation
			JOINT Spine3
			{
				OFFSET 0.001906 0.049304 0.025578
				CHANNELS 3 Zrotation Yrotation Xrotation
				JOINT Neck
				{
					OFFSET -0.004620 0.210958 -0.044063
					CHANNELS 3 Zrotation Yrotation Xrotation
					JOINT Head
					{
						OFFSET 0.003833 0.067393 0.052435
						CHANNELS 3 Zrotation Yrotation Xrotation
						End Site
						{
							OFFSET 0.000000 0.000000 0.000000
						}
					}
				}
				JOINT Left_collar
				{
					OFFSET 0.070771 0.116689 -0.037192
					CHANNELS 3 Zrotation Yrotation Xrotation
					JOINT Left_shoulder
					{
						OFFSET 0.080652 0.031596 -0.005617
						CHANNELS 3 Zrotation Yrotation Xrotation
						JOINT Left_elbow
						{
							OFFSET 0.262654 -0.015020 -0.027939
							CHANNELS 3 Zrotation Yrotation Xrotation
							JOINT Left_wrist
							{
								OFFSET 0.250438 0.010062 -0.000990
								CHANNELS 3 Zrotation Yrotation Xrotation
								JOINT Left_palm
								{
									OFFSET 0.081198 -0.010037 -0.013706
									CHANNELS 3 Zrotation Yrotation Xrotation
									End Site
									{
										OFFSET 0.000000 0.000000 0.000000
									}
								}
							}
						}
					}
				}
				JOINT Right_collar
				{
					OFFSET -0.072972 0.115556 -0.040762
					CHANNELS 3 Zrotation Yrotation Xrotation
					JOINT Right_shoulder
					{
						OFFSET -0.082917 0.031841 -0.006673
						CHANNELS 3 Zrotation Yrotation Xrotation
						JOINT Right_elbow
						{
							OFFSET -0.252882 -0.013790 -0.020410
							CHANNELS 3 Zrotation Yrotation Xrotation
							JOINT Right_wrist
							{
								OFFSET -0.255570 0.009163 -0.005138
								CHANNELS 3 Zrotation Yrotation Xrotation
								JOINT Right_palm
								{
									OFFSET -0.080804 -0.007282 -0.010415
									CHANNELS 3 Zrotation Yrotation Xrotation
									End Site
									{
										OFFSET 0.000000 0.000000 0.000000
									}
								}
							}
						}
					}
				}
			}
		}
	}
}
MOTION
Frames: 9
Frame Time: 0.100000
0.000000 0.000000 0.000000 175.104946 22.836804 -18.480604 6.840449 6.196837 8.749844 -4.548658 -14.796357 -2.751825 -5.801769 13.405901 -8.983156 3.850514 0.667731 0.892682 -4.137308 -6.747042 8.404700 6.107785 10.291436 0.295979 12.940185 -13.458754 -11.009975 -10.661442 10.984379 3.421107 2.098264 1.489367 8.548268 0.506332 -3.041300 1.555013 0.965149 -0.261682 3.230565 1.094718 2.272256 5.638208 0.601742 -0.473416 0.218648 -7.825050 0.942702 -7.436210 -2.321331 2.068664 -12.937702 2.632895 -6.850152 -8.294630 2.712945 -5.995779 21.998694 -8.401903 -2.924278 -14.996957 6.763002 -0.327663 -6.101751 0.438297 -4.656053 -12.041290 -4.850985 6.546330 -11.792448 -1.137486 2.996894 16.511378 9.269144 4.791612 -4.766926 
0.000139 0.000003 0.000161 175.087814 22.868761 -18.524993 6.885871 6.198436 8.808644 -4.555568 -14.822568 -2.791565 -5.791305 13.355920 -8.953706 3.842780 0.716743 0.879562 -4.133363 -6.782984 8.524289 6.101203 10.285442 0.163107 12.916850 -13.454448 -10.970169 -10.628630 10.970717 3.426463 2.068006 1.527474 8.531903 0.464690 -3.037131 1.652760 0.946521 -0.262251 3.232137 1.096099 2.285837 5.742682 0.628666 -0.442190 0.212547 -7.888234 0.887289 -7.421599 -2.423310 1.991928 -12.911099 2.590391 -6.886036 -8.171237 2.659437 -5.928073 22.087486 -8.426615 -2.951540 -15.033250 6.782409 -0.316267 -6.083962 0.554367 -4.684048 -12.012587 -4.880322 6.631753 -11.720468 -1.061684 2.954763 16.571211 9.313067 4.825509 -4.805908 
0.000261 0.000104 -0.000003 175.058349 22.964775 -18.614200 6.887021 6.162476 8.765829 -4.590214 -14.884063 -2.598701 -5.774231 13.321118 -9.014031 3.846787 0.800141 0.839913 -4.121124 -6.748257 8.545073 6.105145 10.299747 0.291233 12.905751 -13.521614 -11.056158 -10.652531 10.985364 3.377990 2.035775 1.527210 8.612521 0.440936 -3.047849 1.684239 0.928895 -0.280397 3.258020 1.105173 2.311921 5.715863 0.608539 -0.439834 0.237343 -7.911197 0.849640 -7.406287 -2.525453 1.936763 -12.919019 2.576179 -6.880797 -8.132149 2.663640 -5.869681 22.054767 -8.400218 -2.948523 -15.024594 6.775920 -0.302220 -6.109939 0.676452 -4.644785 -11.969928 -4.931781 6.753432 -11.737591 -1.087376 2.900982 16.515999 9.317647 4.834152 -4.816156 
0.000365 0.000182 -0.000379 175.048201 22.939451 -18.637488 6.899069 6.153757 8.763620 -4.602097 -14.877305 -2.594402 -5.760231 13.322139 -9.015653 3.834234 0.814788 0.849620 -4.120921 -6.720719 8.519776 6.119201 10.301465 0.340225 12.894874 -13.509395 -11.049917 -10.627277 10.963349 3.361370 2.006750 1.545847 8.670732 0.425372 -3.023863 1.704332 0.921590 -0.262964 3.256729 1.081840 2.315687 5.679589 0.598880 -0.469337 0.228966 -7.938672 0.852920 -7.410233 -2.557035 1.939572 -12.933374 2.591294 -6.877589 -8.189605 2.750727 -5.912539 22.050726 -8.391428 -2.952271 -14.999331 6.820788 -0.274819 -6.105208 0.748615 -4.612213 -11.926151 -4.982376 6.842651 -11.670308 -1.169675 2.967002 16.613168 9.322475 4.844589 -4.818974 
-0.000080 0.000399 -0.001604 175.003440 22.988014 -18.485303 6.811410 6.016258 8.183813 -4.759130 -14.786473 -2.011918 -5.615264 13.297998 -9.182858 3.803998 0.901421 0.881335 -4.224443 -6.695853 8.429342 6.172969 10.369025 0.032783 13.107776 -13.485498 -10.874918 -10.916364 11.027281 3.279509 1.895095 1.633979 8.749549 0.446975 -3.054790 1.622406 0.934310 -0.272420 3.268171 1.157964 2.273246 5.528260 0.690564 -0.571075 0.238348 -7.955815 0.908184 -7.400428 -2.584665 1.924275 -12.889980 2.677415 -7.068123 -8.168951 2.889060 -5.877261 22.067587 -8.547363 -3.039189 -15.049042 6.907536 -0.319927 -6.125182 0.836721 -4.588656 -11.874338 -5.078318 6.986628 -11.758744 -1.322977 2.966496 16.604051 9.510242 4.931018 -4.932449 
-0.002275 0.000669 -0.004044 175.001680 22.955031 -18.300411 6.602649 5.963437 7.760414 -4.898901 -14.635598 -1.783647 -5.439813 13.214113 -9.186365 3.691149 0.995076 0.890725 -4.422215 -6.707997 8.195434 6.140557 10.354493 -0.148429 13.336654 -13.466182 -10.620782 -11.201488 11.122202 3.141446 1.858603 1.680574 8.871241 0.410341 -3.071055 1.603582 0.905760 -0.270453 3.270934 1.111316 2.223769 5.459977 0.741955 -0.598915 0.182481 -7.948522 0.834443 -7.375664 -2.600419 1.829149 -12.895123 2.630552 -7.060752 -8.130777 2.814325 -5.887962 22.093290 -8.621461 -3.082070 -15.005857 6.901537 -0.284253 -6.097654 0.867180 -4.542871 -11.820914 -5.178420 7.216544 -11.700101 -1.299109 3.014050 16.779269 9.585448 5.005156 -4.971394 
-0.006439 0.001081 -0.007316 174.883892 22.777245 -18.369208 6.438964 6.030242 7.879526 -4.925210 -14.646071 -2.083787 -5.296960 13.209286 -9.157396 3.641976 1.155334 0.920851 -4.500034 -6.598702 7.837264 6.021614 10.376845 0.297146 13.409792 -13.544239 -10.518193 -11.241092 11.162812 2.961365 1.892842 1.618998 9.124568 0.405370 -3.002749 1.796351 0.908268 -0.263071 3.297605 1.178973 2.050979 5.457975 0.786894 -0.692752 0.001906 -8.012058 0.771999 -7.306008 -2.692268 1.846574 -12.777114 2.764168 -7.510176 -7.970343 2.904443 -5.859743 22.123374 -8.639720 -3.106807 -15.099134 6.854394 -0.115463 -6.073076 0.851508 -4.463320 -11.814139 -5.295781 7.583213 -11.812149 -1.443288 2.996492 16.845390 9.613530 5.041872 -5.078590 
-0.011838 0.001564 -0.011004 174.744557 22.642104 -18.354503 6.119518 5.973064 7.616228 -5.032677 -14.568629 -1.855839 -4.979848 13.183854 -9.334841 3.449103 1.380854 1.007516 -4.697740 -6.499869 7.554899 5.883909 10.386696 0.425580 13.673616 -13.613051 -10.261051 -11.498122 11.277856 2.720268 1.779076 1.636192 9.333621 0.452778 -3.019995 1.848967 0.919917 -0.288788 3.340140 1.286148 1.763970 5.377288 0.881269 -1.018103 -0.074891 -8.030143 0.731070 -7.264723 -2.658483 1.765640 -12.804271 2.950337 -7.903010 -7.855345 2.910451 -5.805180 22.325749 -8.737953 -3.172334 -15.133697 6.952356 -0.033598 -6.125175 0.988945 -4.377475 -11.716109 -5.592539 8.090101 -11.928209 -1.521111 2.962237 16.948427 9.727574 5.148673 -5.169936 
-0.018919 0.002283 -0.015469 174.552761 22.417081 -18.222194 5.758791 5.913291 7.264395 -5.178829 -14.412501 -1.729277 -4.542758 13.124951 -9.502852 3.154215 1.613539 1.109814 -4.947437 -6.430211 7.158505 5.731952 10.378220 0.441096 13.986693 -13.600995 -9.901373 -11.772623 11.381703 2.511922 1.696380 1.692720 9.559061 0.495793 -2.961974 1.835067 0.934472 -0.268562 3.328907 1.357790 1.452694 5.169562 0.994790 -1.344628 -0.232066 -8.167508 0.709385 -7.242116 -2.618160 1.613871 -12.728020 3.416497 -8.915563 -7.678878 3.059950 -5.851764 22.509243 -8.970262 -3.295302 -15.165715 7.191719 0.023725 -6.103921 1.058191 -4.464624 -11.613968 -6.049302 8.726164 -12.256972 -1.772218 3.009263 17.032213 9.981264 5.305070 -5.336688 
